<svg xmlns="http://www.w3.org/2000/svg" width="1920" height="1080" viewBox="0 0 1920 1080">
  <defs>
    <linearGradient id="bg" x1="0" y1="0" x2="1" y2="1">
      <stop offset="0" stop-color="#f8fafc"/>
      <stop offset="0.6" stop-color="#eef2ff"/>
      <stop offset="1" stop-color="#ecfeff"/>
    </linearGradient>
    <radialGradient id="r1" cx="30%" cy="25%" r="65%">
      <stop offset="0" stop-color="#a5b4fc" stop-opacity="0.35"/>
      <stop offset="1" stop-color="#a5b4fc" stop-opacity="0"/>
    </radialGradient>
    <radialGradient id="r2" cx="80%" cy="70%" r="70%">
      <stop offset="0" stop-color="#67e8f9" stop-opacity="0.28"/>
      <stop offset="1" stop-color="#67e8f9" stop-opacity="0"/>
    </radialGradient>
    <filter id="blur" x="-20%" y="-20%" width="140%" height="140%">
      <feGaussianBlur stdDeviation="18" />
    </filter>
  </defs>

  <rect width="1920" height="1080" fill="url(#bg)"/>
  <rect width="1920" height="1080" fill="url(#r1)"/>
  <rect width="1920" height="1080" fill="url(#r2)"/>

  <!-- Soft glassy polygons -->
  <g opacity="0.35" filter="url(#blur)">
    <path d="M140 140 L620 40 L760 340 L300 420 Z" fill="#ffffff"/>
    <path d="M1220 80 L1840 200 L1680 520 L1120 420 Z" fill="#ffffff"/>
    <path d="M960 560 L1580 620 L1440 1040 L860 980 Z" fill="#ffffff"/>
    <path d="M120 720 L620 640 L740 980 L200 1060 Z" fill="#ffffff"/>
  </g>

  <!-- Subtle line-work -->
  <g opacity="0.12" stroke="#0f172a" stroke-width="2" fill="none">
    <path d="M120 260 C420 140, 640 140, 920 220"/>
    <path d="M1000 280 C1240 190, 1500 200, 1820 340"/>
    <path d="M140 880 C460 760, 760 760, 1080 840"/>
  </g>
</svg>
