<svg xmlns="http://www.w3.org/2000/svg" width="1600" height="900" viewBox="0 0 1600 900">
  <defs>
    <linearGradient id="g1" x1="0" y1="0" x2="1" y2="1">
      <stop offset="0" stop-color="#ffffff"/>
      <stop offset="0.5" stop-color="#f1f5ff"/>
      <stop offset="1" stop-color="#ecfeff"/>
    </linearGradient>
    <radialGradient id="r1" cx="25%" cy="20%" r="70%">
      <stop offset="0" stop-color="#93c5fd" stop-opacity="0.45"/>
      <stop offset="1" stop-color="#93c5fd" stop-opacity="0"/>
    </radialGradient>
    <radialGradient id="r2" cx="75%" cy="70%" r="80%">
      <stop offset="0" stop-color="#6ee7b7" stop-opacity="0.35"/>
      <stop offset="1" stop-color="#6ee7b7" stop-opacity="0"/>
    </radialGradient>
    <radialGradient id="r3" cx="75%" cy="25%" r="70%">
      <stop offset="0" stop-color="#fda4af" stop-opacity="0.22"/>
      <stop offset="1" stop-color="#fda4af" stop-opacity="0"/>
    </radialGradient>
    <filter id="blur" x="-20%" y="-20%" width="140%" height="140%">
      <feGaussianBlur stdDeviation="30"/>
    </filter>
  </defs>
  <rect width="1600" height="900" fill="url(#g1)"/>
  <g filter="url(#blur)">
    <circle cx="340" cy="200" r="340" fill="url(#r1)"/>
    <circle cx="1200" cy="630" r="420" fill="url(#r2)"/>
    <circle cx="1260" cy="220" r="360" fill="url(#r3)"/>
  </g>
  <g opacity="0.14">
    <path d="M0 640 C 240 520, 420 760, 720 650 C 980 560, 1180 690, 1600 580 L 1600 900 L 0 900 Z" fill="#0ea5e9"/>
    <path d="M0 720 C 260 610, 420 820, 760 700 C 1040 600, 1240 760, 1600 650 L 1600 900 L 0 900 Z" fill="#22c55e"/>
  </g>
  <g opacity="0.12">
    <path d="M220 120 L 520 40 L 780 160 L 460 260 Z" fill="#6366f1"/>
    <path d="M980 110 L 1250 60 L 1400 210 L 1120 260 Z" fill="#06b6d4"/>
  </g>
</svg>
